<svg width="755" height="219" viewBox="0 0 755 219" fill="none" xmlns="http://www.w3.org/2000/svg">
<path d="M14.4 92.336C15.424 92.336 16.128 92.656 16.512 93.296C16.896 93.872 17.088 94.416 17.088 94.928V158H12.288C11.52 158 11.008 157.84 10.752 157.52C10.56 157.2 10.432 156.88 10.368 156.56V92.336H14.4ZM119.288 92.336V158H116.216C115.32 158 114.584 157.84 114.008 157.52C113.432 157.2 112.984 156.816 112.664 156.368C112.344 155.92 112.088 155.472 111.896 155.024C111.768 154.512 111.672 154.096 111.608 153.776L104.408 121.328V158H97.6875V92.336H100.76C102.68 92.336 103.896 92.72 104.408 93.488C104.984 94.192 105.368 95.024 105.56 95.984L112.664 130.16V92.336H119.288ZM219.983 92.336C219.599 93.168 219.151 94.128 218.639 95.216C218.191 96.24 217.903 96.88 217.775 97.136C217.519 97.584 217.135 98.032 216.623 98.48C216.111 98.864 215.311 99.056 214.223 99.056H206.735C206.287 99.056 205.903 99.216 205.583 99.536C205.263 99.792 205.103 100.144 205.103 100.592V121.136L217.103 121.04C216.719 121.936 216.271 122.928 215.759 124.016C215.311 125.04 215.023 125.712 214.895 126.032C214.639 126.48 214.223 126.896 213.647 127.28C213.135 127.664 212.335 127.856 211.247 127.856H206.735C206.287 127.856 205.903 128.016 205.583 128.336C205.263 128.592 205.103 128.944 205.103 129.392V155.984C205.103 156.56 204.911 157.04 204.527 157.424C204.143 157.808 203.663 158 203.087 158H198.383V94.256C198.383 93.744 198.575 93.296 198.959 92.912C199.407 92.528 199.887 92.336 200.399 92.336H219.983ZM295.283 92.336C296.307 92.336 297.011 92.656 297.395 93.296C297.779 93.872 297.971 94.416 297.971 94.928V158H293.171C292.403 158 291.891 157.84 291.635 157.52C291.443 157.2 291.315 156.88 291.251 156.56V92.336H295.283ZM400.17 92.336V158H397.098C396.202 158 395.466 157.84 394.89 157.52C394.314 157.2 393.866 156.816 393.546 156.368C393.226 155.92 392.97 155.472 392.778 155.024C392.65 154.512 392.554 154.096 392.49 153.776L385.29 121.328V158H378.57V92.336H381.642C383.562 92.336 384.778 92.72 385.29 93.488C385.866 94.192 386.25 95.024 386.442 95.984L393.546 130.16V92.336H400.17ZM484.725 92.336C485.749 92.336 486.453 92.656 486.837 93.296C487.221 93.872 487.413 94.416 487.413 94.928V158H482.613C481.845 158 481.333 157.84 481.077 157.52C480.885 157.2 480.757 156.88 480.693 156.56V92.336H484.725ZM590.582 92.336C590.198 93.168 589.75 94.128 589.238 95.216C588.79 96.24 588.502 96.88 588.374 97.136C588.182 97.584 587.798 98 587.222 98.384C586.71 98.768 585.91 98.96 584.822 98.96H579.542C579.03 98.96 578.614 99.12 578.294 99.44C578.038 99.76 577.91 100.144 577.91 100.592V158H572.726C571.958 158 571.446 157.84 571.19 157.52C570.998 157.136 570.87 156.816 570.806 156.56V98.96H561.398V94.352C561.398 93.776 561.59 93.296 561.974 92.912C562.358 92.528 562.838 92.336 563.414 92.336H590.582ZM668.888 151.28H683C683.448 151.28 683.608 151.536 683.48 152.048C683.352 152.496 683.096 153.04 682.712 153.68C682.392 154.256 682.008 154.8 681.56 155.312C681.176 155.824 680.92 156.112 680.792 156.176C680.6 156.624 680.216 157.04 679.64 157.424C679.128 157.808 678.328 158 677.24 158H662.168V94.256C662.168 93.68 662.36 93.232 662.744 92.912C663.192 92.528 663.672 92.336 664.184 92.336H681.752C682.2 92.336 682.36 92.592 682.232 93.104C682.104 93.552 681.848 94.064 681.464 94.64C681.144 95.216 680.76 95.76 680.312 96.272C679.928 96.784 679.672 97.072 679.544 97.136C679.352 97.584 678.968 98.032 678.392 98.48C677.88 98.864 677.08 99.056 675.992 99.056H670.52C670.072 99.056 669.688 99.216 669.368 99.536C669.048 99.792 668.888 100.144 668.888 100.592V120.176H679.064C679.512 120.176 679.672 120.432 679.544 120.944C679.48 121.392 679.256 121.936 678.872 122.576C678.552 123.152 678.168 123.696 677.72 124.208C677.272 124.72 676.984 125.008 676.856 125.072C676.664 125.584 676.28 126.032 675.704 126.416C675.192 126.8 674.392 126.992 673.304 126.992L670.52 126.896C670.072 126.896 669.688 127.056 669.368 127.376C669.048 127.696 668.888 128.08 668.888 128.528V151.28Z" fill="#00D2FF"/>
<path d="M24.0625 37.8125V80H10V37.8125C10 25.3125 16.25 19.0625 28.75 19.0625C33.5938 19.0625 37.5 20 40.4688 21.875C43.4375 20 47.3438 19.0625 52.1875 19.0625C64.6875 19.0625 70.9375 25.3125 70.9375 37.8125V80H56.875V37.8125C56.875 34.6875 55.3125 33.125 52.1875 33.125C49.0625 33.125 47.5 34.6875 47.5 37.8125V80H33.4375V37.8125C33.4375 34.6875 31.875 33.125 28.75 33.125C25.625 33.125 24.0625 34.6875 24.0625 37.8125ZM94.375 19.0625H136.562V33.125H94.375C91.25 33.125 89.6875 34.6875 89.6875 37.8125C89.6875 40.9375 91.25 42.5 94.375 42.5H136.562V56.5625H94.375C91.25 56.5625 89.6875 58.125 89.6875 61.25C89.6875 64.375 91.25 65.9375 94.375 65.9375H136.562V80H94.375C81.875 80 75.625 73.75 75.625 61.25C75.625 56.4062 76.5625 52.5 78.4375 49.5312C76.5625 46.5625 75.625 42.6562 75.625 37.8125C75.625 25.3125 81.875 19.0625 94.375 19.0625ZM155.312 37.8125V80H141.25V37.8125C141.25 25.3125 147.5 19.0625 160 19.0625H183.438C195.938 19.0625 202.188 25.3125 202.188 37.8125V80H188.125V37.8125C188.125 34.6875 186.562 33.125 183.438 33.125H160C156.875 33.125 155.312 34.6875 155.312 37.8125ZM253.75 61.25V19.0625H267.812V61.25C267.812 73.75 261.562 80 249.062 80H225.625C213.125 80 206.875 73.75 206.875 61.25V19.0625H220.938V61.25C220.938 64.375 222.5 65.9375 225.625 65.9375H249.062C252.188 65.9375 253.75 64.375 253.75 61.25ZM338.5 19.0625H357.25V33.125H338.5C335.375 33.125 333.812 34.6875 333.812 37.8125V80H319.75V37.8125C319.75 34.6875 318.188 33.125 315.062 33.125H296.312V19.0625H315.062C319.906 19.0625 323.812 20 326.781 21.875C329.75 20 333.656 19.0625 338.5 19.0625ZM404.125 33.125H361.938V19.0625H404.125C416.625 19.0625 422.875 25.3125 422.875 37.8125C422.875 42.6562 421.938 46.5625 420.062 49.5312C421.938 52.5 422.875 56.4062 422.875 61.25V80H408.812V61.25C408.812 58.125 407.25 56.5625 404.125 56.5625H376V80H361.938V42.5H404.125C407.25 42.5 408.812 40.9375 408.812 37.8125C408.812 34.6875 407.25 33.125 404.125 33.125ZM446.312 19.0625H488.5V33.125H446.312C443.188 33.125 441.625 34.6875 441.625 37.8125C441.625 40.9375 443.188 42.5 446.312 42.5H488.5V56.5625H446.312C443.188 56.5625 441.625 58.125 441.625 61.25C441.625 64.375 443.188 65.9375 446.312 65.9375H488.5V80H446.312C433.812 80 427.562 73.75 427.562 61.25C427.562 56.4062 428.5 52.5 430.375 49.5312C428.5 46.5625 427.562 42.6562 427.562 37.8125C427.562 25.3125 433.812 19.0625 446.312 19.0625ZM507.25 37.8125V80H493.188V37.8125C493.188 25.3125 499.438 19.0625 511.938 19.0625H535.375C547.875 19.0625 554.125 25.3125 554.125 37.8125V80H540.062V37.8125C540.062 34.6875 538.5 33.125 535.375 33.125H511.938C508.812 33.125 507.25 34.6875 507.25 37.8125ZM601 33.125H558.812V19.0625H601C613.5 19.0625 619.75 25.3125 619.75 37.8125V61.25C619.75 73.75 613.5 80 601 80H558.812V37.8125H572.875V65.9375H601C604.125 65.9375 605.688 64.375 605.688 61.25V37.8125C605.688 34.6875 604.125 33.125 601 33.125ZM643.188 19.0625H685.375V33.125H643.188C640.062 33.125 638.5 34.6875 638.5 37.8125C638.5 40.9375 640.062 42.5 643.188 42.5H666.625C679.125 42.5 685.375 48.75 685.375 61.25C685.375 73.75 679.125 80 666.625 80H624.438V65.9375H666.625C669.75 65.9375 671.312 64.375 671.312 61.25C671.312 58.125 669.75 56.5625 666.625 56.5625H643.188C630.688 56.5625 624.438 50.3125 624.438 37.8125C624.438 25.3125 630.688 19.0625 643.188 19.0625Z" fill="white"/>
</svg>
